<mxfile host="app.diagrams.net" modified="2023-07-29T15:56:35.616Z" agent="Mozilla/5.0 (Windows NT 10.0; Win64; x64) AppleWebKit/537.36 (KHTML, like Gecko) Chrome/115.0.0.0 Safari/537.36" etag="q47CT0Mxo-6ezlx6a8fC" version="21.6.6" type="device">
  <diagram id="R2lEEEUBdFMjLlhIrx00" name="Page-1">
    <mxGraphModel dx="2185" dy="666" grid="0" gridSize="10" guides="1" tooltips="1" connect="1" arrows="0" fold="1" page="1" pageScale="1" pageWidth="850" pageHeight="1100" math="0" shadow="0" extFonts="Permanent Marker^https://fonts.googleapis.com/css?family=Permanent+Marker">
      <root>
        <mxCell id="0" />
        <mxCell id="1" parent="0" />
        <mxCell id="IMHqvBNs-uF33SWiAqC5-3" value="" style="ellipse;whiteSpace=wrap;html=1;" vertex="1" parent="1">
          <mxGeometry x="230" y="110" width="101" height="40" as="geometry" />
        </mxCell>
        <mxCell id="IMHqvBNs-uF33SWiAqC5-4" value="" style="ellipse;whiteSpace=wrap;html=1;" vertex="1" parent="1">
          <mxGeometry x="349.5" y="110" width="101" height="40" as="geometry" />
        </mxCell>
        <mxCell id="IMHqvBNs-uF33SWiAqC5-5" value="" style="ellipse;whiteSpace=wrap;html=1;" vertex="1" parent="1">
          <mxGeometry x="129" y="220" width="101" height="40" as="geometry" />
        </mxCell>
        <mxCell id="IMHqvBNs-uF33SWiAqC5-6" value="" style="ellipse;whiteSpace=wrap;html=1;" vertex="1" parent="1">
          <mxGeometry x="129" y="150" width="101" height="40" as="geometry" />
        </mxCell>
        <mxCell id="IMHqvBNs-uF33SWiAqC5-7" value="" style="ellipse;whiteSpace=wrap;html=1;" vertex="1" parent="1">
          <mxGeometry x="170" y="290" width="101" height="40" as="geometry" />
        </mxCell>
        <mxCell id="IMHqvBNs-uF33SWiAqC5-14" value="" style="endArrow=none;html=1;rounded=0;entryX=0.5;entryY=1;entryDx=0;entryDy=0;" edge="1" parent="1" target="IMHqvBNs-uF33SWiAqC5-4">
          <mxGeometry width="50" height="50" relative="1" as="geometry">
            <mxPoint x="400.5" y="220" as="sourcePoint" />
            <mxPoint x="450.5" y="170" as="targetPoint" />
          </mxGeometry>
        </mxCell>
        <mxCell id="IMHqvBNs-uF33SWiAqC5-16" value="" style="endArrow=none;html=1;rounded=0;entryX=0.624;entryY=0.958;entryDx=0;entryDy=0;entryPerimeter=0;" edge="1" parent="1" target="IMHqvBNs-uF33SWiAqC5-3">
          <mxGeometry width="50" height="50" relative="1" as="geometry">
            <mxPoint x="360" y="220" as="sourcePoint" />
            <mxPoint x="410" y="170" as="targetPoint" />
          </mxGeometry>
        </mxCell>
        <mxCell id="IMHqvBNs-uF33SWiAqC5-17" value="" style="endArrow=none;html=1;rounded=0;exitX=0.99;exitY=0.792;exitDx=0;exitDy=0;exitPerimeter=0;" edge="1" parent="1" source="IMHqvBNs-uF33SWiAqC5-6">
          <mxGeometry width="50" height="50" relative="1" as="geometry">
            <mxPoint x="310" y="280" as="sourcePoint" />
            <mxPoint x="360" y="230" as="targetPoint" />
          </mxGeometry>
        </mxCell>
        <mxCell id="IMHqvBNs-uF33SWiAqC5-19" value="" style="endArrow=none;html=1;rounded=0;exitX=1;exitY=0.5;exitDx=0;exitDy=0;" edge="1" parent="1" source="IMHqvBNs-uF33SWiAqC5-7" target="IMHqvBNs-uF33SWiAqC5-59">
          <mxGeometry width="50" height="50" relative="1" as="geometry">
            <mxPoint x="310" y="310" as="sourcePoint" />
            <mxPoint x="360" y="260" as="targetPoint" />
          </mxGeometry>
        </mxCell>
        <mxCell id="IMHqvBNs-uF33SWiAqC5-20" value="" style="endArrow=none;html=1;rounded=0;" edge="1" parent="1" source="IMHqvBNs-uF33SWiAqC5-5">
          <mxGeometry width="50" height="50" relative="1" as="geometry">
            <mxPoint x="310" y="290" as="sourcePoint" />
            <mxPoint x="360" y="240" as="targetPoint" />
          </mxGeometry>
        </mxCell>
        <mxCell id="IMHqvBNs-uF33SWiAqC5-21" value="&lt;font style=&quot;font-size: 14px;&quot;&gt;name&lt;/font&gt;" style="text;html=1;strokeColor=none;fillColor=none;align=center;verticalAlign=middle;whiteSpace=wrap;rounded=0;" vertex="1" parent="1">
          <mxGeometry x="370" y="117" width="60" height="30" as="geometry" />
        </mxCell>
        <mxCell id="IMHqvBNs-uF33SWiAqC5-22" value="&lt;font style=&quot;font-size: 14px;&quot;&gt;email&lt;/font&gt;" style="text;html=1;strokeColor=none;fillColor=none;align=center;verticalAlign=middle;whiteSpace=wrap;rounded=0;" vertex="1" parent="1">
          <mxGeometry x="250.5" y="115" width="60" height="30" as="geometry" />
        </mxCell>
        <mxCell id="IMHqvBNs-uF33SWiAqC5-23" value="&lt;font style=&quot;font-size: 14px;&quot;&gt;password&lt;/font&gt;" style="text;html=1;strokeColor=none;fillColor=none;align=center;verticalAlign=middle;whiteSpace=wrap;rounded=0;" vertex="1" parent="1">
          <mxGeometry x="149.5" y="156" width="60" height="30" as="geometry" />
        </mxCell>
        <mxCell id="IMHqvBNs-uF33SWiAqC5-24" value="&lt;font style=&quot;font-size: 14px;&quot;&gt;role&lt;/font&gt;" style="text;html=1;strokeColor=none;fillColor=none;align=center;verticalAlign=middle;whiteSpace=wrap;rounded=0;" vertex="1" parent="1">
          <mxGeometry x="190.5" y="295" width="60" height="30" as="geometry" />
        </mxCell>
        <mxCell id="IMHqvBNs-uF33SWiAqC5-25" value="&lt;font style=&quot;font-size: 14px;&quot;&gt;answer&lt;/font&gt;" style="text;html=1;strokeColor=none;fillColor=none;align=center;verticalAlign=middle;whiteSpace=wrap;rounded=0;" vertex="1" parent="1">
          <mxGeometry x="149.5" y="225" width="60" height="30" as="geometry" />
        </mxCell>
        <mxCell id="IMHqvBNs-uF33SWiAqC5-31" value="&lt;font style=&quot;font-size: 14px;&quot;&gt;rents&lt;/font&gt;" style="html=1;whiteSpace=wrap;aspect=fixed;shape=isoRectangle;" vertex="1" parent="1">
          <mxGeometry x="550" y="210" width="100" height="60" as="geometry" />
        </mxCell>
        <mxCell id="IMHqvBNs-uF33SWiAqC5-35" value="" style="endArrow=classic;html=1;rounded=0;" edge="1" parent="1" target="IMHqvBNs-uF33SWiAqC5-36">
          <mxGeometry width="50" height="50" relative="1" as="geometry">
            <mxPoint x="650" y="240" as="sourcePoint" />
            <mxPoint x="740" y="240" as="targetPoint" />
          </mxGeometry>
        </mxCell>
        <mxCell id="IMHqvBNs-uF33SWiAqC5-68" style="edgeStyle=orthogonalEdgeStyle;rounded=0;orthogonalLoop=1;jettySize=auto;html=1;exitX=0.25;exitY=1;exitDx=0;exitDy=0;entryX=0.5;entryY=0;entryDx=0;entryDy=0;" edge="1" parent="1" source="IMHqvBNs-uF33SWiAqC5-36" target="IMHqvBNs-uF33SWiAqC5-67">
          <mxGeometry relative="1" as="geometry">
            <Array as="points">
              <mxPoint x="765" y="320" />
              <mxPoint x="400" y="320" />
            </Array>
          </mxGeometry>
        </mxCell>
        <mxCell id="IMHqvBNs-uF33SWiAqC5-36" value="Bikes" style="rounded=1;arcSize=10;whiteSpace=wrap;html=1;align=center;" vertex="1" parent="1">
          <mxGeometry x="740" y="220" width="100" height="40" as="geometry" />
        </mxCell>
        <mxCell id="IMHqvBNs-uF33SWiAqC5-37" value="" style="ellipse;whiteSpace=wrap;html=1;" vertex="1" parent="1">
          <mxGeometry x="755" y="117" width="101" height="40" as="geometry" />
        </mxCell>
        <mxCell id="IMHqvBNs-uF33SWiAqC5-38" value="&lt;font style=&quot;font-size: 14px;&quot;&gt;name&lt;/font&gt;" style="text;html=1;strokeColor=none;fillColor=none;align=center;verticalAlign=middle;whiteSpace=wrap;rounded=0;" vertex="1" parent="1">
          <mxGeometry x="775.5" y="124" width="60" height="30" as="geometry" />
        </mxCell>
        <mxCell id="IMHqvBNs-uF33SWiAqC5-39" value="" style="ellipse;whiteSpace=wrap;html=1;" vertex="1" parent="1">
          <mxGeometry x="870" y="116" width="101" height="40" as="geometry" />
        </mxCell>
        <mxCell id="IMHqvBNs-uF33SWiAqC5-40" value="&lt;font style=&quot;font-size: 14px;&quot;&gt;number&lt;/font&gt;" style="text;html=1;strokeColor=none;fillColor=none;align=center;verticalAlign=middle;whiteSpace=wrap;rounded=0;" vertex="1" parent="1">
          <mxGeometry x="892.5" y="125" width="60" height="30" as="geometry" />
        </mxCell>
        <mxCell id="IMHqvBNs-uF33SWiAqC5-41" value="" style="ellipse;whiteSpace=wrap;html=1;" vertex="1" parent="1">
          <mxGeometry x="967" y="149" width="101" height="40" as="geometry" />
        </mxCell>
        <mxCell id="IMHqvBNs-uF33SWiAqC5-42" value="&lt;font style=&quot;font-size: 14px;&quot;&gt;description&lt;/font&gt;" style="text;html=1;strokeColor=none;fillColor=none;align=center;verticalAlign=middle;whiteSpace=wrap;rounded=0;" vertex="1" parent="1">
          <mxGeometry x="987.5" y="156" width="60" height="30" as="geometry" />
        </mxCell>
        <mxCell id="IMHqvBNs-uF33SWiAqC5-43" value="" style="ellipse;whiteSpace=wrap;html=1;" vertex="1" parent="1">
          <mxGeometry x="969" y="262" width="101" height="40" as="geometry" />
        </mxCell>
        <mxCell id="IMHqvBNs-uF33SWiAqC5-44" value="&lt;font style=&quot;font-size: 14px;&quot;&gt;price&lt;/font&gt;" style="text;html=1;strokeColor=none;fillColor=none;align=center;verticalAlign=middle;whiteSpace=wrap;rounded=0;" vertex="1" parent="1">
          <mxGeometry x="989.5" y="269" width="60" height="30" as="geometry" />
        </mxCell>
        <mxCell id="IMHqvBNs-uF33SWiAqC5-47" value="" style="ellipse;whiteSpace=wrap;html=1;" vertex="1" parent="1">
          <mxGeometry x="776.5" y="320" width="101" height="40" as="geometry" />
        </mxCell>
        <mxCell id="IMHqvBNs-uF33SWiAqC5-48" value="&lt;font style=&quot;font-size: 14px;&quot;&gt;photo&lt;/font&gt;" style="text;html=1;strokeColor=none;fillColor=none;align=center;verticalAlign=middle;whiteSpace=wrap;rounded=0;" vertex="1" parent="1">
          <mxGeometry x="797" y="327" width="60" height="30" as="geometry" />
        </mxCell>
        <mxCell id="IMHqvBNs-uF33SWiAqC5-51" value="" style="endArrow=none;html=1;rounded=0;entryX=0.25;entryY=1;entryDx=0;entryDy=0;" edge="1" parent="1" target="IMHqvBNs-uF33SWiAqC5-38">
          <mxGeometry width="50" height="50" relative="1" as="geometry">
            <mxPoint x="785.5" y="220" as="sourcePoint" />
            <mxPoint x="835.5" y="170" as="targetPoint" />
          </mxGeometry>
        </mxCell>
        <mxCell id="IMHqvBNs-uF33SWiAqC5-52" value="" style="endArrow=none;html=1;rounded=0;" edge="1" parent="1" target="IMHqvBNs-uF33SWiAqC5-40">
          <mxGeometry width="50" height="50" relative="1" as="geometry">
            <mxPoint x="835.5" y="220" as="sourcePoint" />
            <mxPoint x="885.5" y="170" as="targetPoint" />
          </mxGeometry>
        </mxCell>
        <mxCell id="IMHqvBNs-uF33SWiAqC5-53" value="" style="endArrow=none;html=1;rounded=0;" edge="1" parent="1" target="IMHqvBNs-uF33SWiAqC5-41">
          <mxGeometry width="50" height="50" relative="1" as="geometry">
            <mxPoint x="840" y="240" as="sourcePoint" />
            <mxPoint x="890" y="190" as="targetPoint" />
          </mxGeometry>
        </mxCell>
        <mxCell id="IMHqvBNs-uF33SWiAqC5-54" value="" style="endArrow=none;html=1;rounded=0;exitX=0.295;exitY=-0.025;exitDx=0;exitDy=0;exitPerimeter=0;" edge="1" parent="1" source="IMHqvBNs-uF33SWiAqC5-47">
          <mxGeometry width="50" height="50" relative="1" as="geometry">
            <mxPoint x="730" y="312" as="sourcePoint" />
            <mxPoint x="780" y="262" as="targetPoint" />
          </mxGeometry>
        </mxCell>
        <mxCell id="IMHqvBNs-uF33SWiAqC5-55" value="" style="endArrow=none;html=1;rounded=0;" edge="1" parent="1">
          <mxGeometry width="50" height="50" relative="1" as="geometry">
            <mxPoint x="970" y="280" as="sourcePoint" />
            <mxPoint x="835.5" y="260" as="targetPoint" />
          </mxGeometry>
        </mxCell>
        <mxCell id="IMHqvBNs-uF33SWiAqC5-57" value="" style="endArrow=none;html=1;rounded=0;exitX=0.413;exitY=-0.025;exitDx=0;exitDy=0;exitPerimeter=0;" edge="1" parent="1">
          <mxGeometry width="50" height="50" relative="1" as="geometry">
            <mxPoint x="935.7130000000002" y="319" as="sourcePoint" />
            <mxPoint x="820" y="262" as="targetPoint" />
          </mxGeometry>
        </mxCell>
        <mxCell id="IMHqvBNs-uF33SWiAqC5-62" style="edgeStyle=orthogonalEdgeStyle;rounded=0;orthogonalLoop=1;jettySize=auto;html=1;exitX=1;exitY=0.5;exitDx=0;exitDy=0;" edge="1" parent="1" source="IMHqvBNs-uF33SWiAqC5-58">
          <mxGeometry relative="1" as="geometry">
            <mxPoint x="760" y="520" as="targetPoint" />
          </mxGeometry>
        </mxCell>
        <mxCell id="IMHqvBNs-uF33SWiAqC5-58" value="&lt;font style=&quot;font-size: 14px;&quot;&gt;Admin&lt;/font&gt;" style="rounded=1;arcSize=10;whiteSpace=wrap;html=1;align=center;" vertex="1" parent="1">
          <mxGeometry x="550" y="600" width="100" height="40" as="geometry" />
        </mxCell>
        <mxCell id="IMHqvBNs-uF33SWiAqC5-60" style="edgeStyle=orthogonalEdgeStyle;rounded=0;orthogonalLoop=1;jettySize=auto;html=1;exitX=1;exitY=0.5;exitDx=0;exitDy=0;entryX=0.003;entryY=0.483;entryDx=0;entryDy=0;entryPerimeter=0;" edge="1" parent="1" source="IMHqvBNs-uF33SWiAqC5-59" target="IMHqvBNs-uF33SWiAqC5-31">
          <mxGeometry relative="1" as="geometry" />
        </mxCell>
        <mxCell id="IMHqvBNs-uF33SWiAqC5-59" value="&lt;font style=&quot;font-size: 14px;&quot;&gt;User&lt;/font&gt;" style="rounded=1;arcSize=10;whiteSpace=wrap;html=1;align=center;" vertex="1" parent="1">
          <mxGeometry x="360" y="215" width="100" height="40" as="geometry" />
        </mxCell>
        <mxCell id="IMHqvBNs-uF33SWiAqC5-65" style="edgeStyle=orthogonalEdgeStyle;rounded=0;orthogonalLoop=1;jettySize=auto;html=1;exitX=0.5;exitY=0;exitDx=0;exitDy=0;entryX=0;entryY=0.75;entryDx=0;entryDy=0;" edge="1" parent="1" source="IMHqvBNs-uF33SWiAqC5-63" target="IMHqvBNs-uF33SWiAqC5-36">
          <mxGeometry relative="1" as="geometry">
            <mxPoint x="720" y="250" as="targetPoint" />
          </mxGeometry>
        </mxCell>
        <mxCell id="IMHqvBNs-uF33SWiAqC5-124" style="edgeStyle=orthogonalEdgeStyle;rounded=0;orthogonalLoop=1;jettySize=auto;html=1;exitX=1;exitY=0.5;exitDx=0;exitDy=0;entryX=0;entryY=0.5;entryDx=0;entryDy=0;" edge="1" parent="1" source="IMHqvBNs-uF33SWiAqC5-63" target="IMHqvBNs-uF33SWiAqC5-123">
          <mxGeometry relative="1" as="geometry" />
        </mxCell>
        <mxCell id="IMHqvBNs-uF33SWiAqC5-63" value="&lt;div style=&quot;font-size: 14px;&quot;&gt;&lt;span style=&quot;background-color: initial;&quot;&gt;&lt;font style=&quot;font-size: 14px;&quot;&gt;can add,update,&lt;/font&gt;&lt;/span&gt;&lt;/div&gt;&lt;div style=&quot;font-size: 14px;&quot;&gt;&lt;span style=&quot;background-color: initial;&quot;&gt;&lt;font style=&quot;font-size: 14px;&quot;&gt;delete&lt;/font&gt;&lt;/span&gt;&lt;/div&gt;" style="rhombus;whiteSpace=wrap;html=1;align=center;" vertex="1" parent="1">
          <mxGeometry x="680" y="420" width="160" height="100" as="geometry" />
        </mxCell>
        <mxCell id="IMHqvBNs-uF33SWiAqC5-70" style="edgeStyle=orthogonalEdgeStyle;rounded=0;orthogonalLoop=1;jettySize=auto;html=1;exitX=0;exitY=0.5;exitDx=0;exitDy=0;entryX=1;entryY=0.5;entryDx=0;entryDy=0;" edge="1" parent="1" source="IMHqvBNs-uF33SWiAqC5-67" target="IMHqvBNs-uF33SWiAqC5-69">
          <mxGeometry relative="1" as="geometry" />
        </mxCell>
        <mxCell id="IMHqvBNs-uF33SWiAqC5-67" value="&lt;div style=&quot;font-size: 14px;&quot;&gt;isAdded&lt;/div&gt;" style="rhombus;whiteSpace=wrap;html=1;align=center;" vertex="1" parent="1">
          <mxGeometry x="320" y="420" width="160" height="100" as="geometry" />
        </mxCell>
        <mxCell id="IMHqvBNs-uF33SWiAqC5-69" value="&lt;font style=&quot;font-size: 14px;&quot;&gt;Order&lt;/font&gt;" style="rounded=1;arcSize=10;whiteSpace=wrap;html=1;align=center;" vertex="1" parent="1">
          <mxGeometry x="130" y="450" width="100" height="40" as="geometry" />
        </mxCell>
        <mxCell id="IMHqvBNs-uF33SWiAqC5-76" value="" style="ellipse;whiteSpace=wrap;html=1;" vertex="1" parent="1">
          <mxGeometry x="-101" y="440" width="101" height="40" as="geometry" />
        </mxCell>
        <mxCell id="IMHqvBNs-uF33SWiAqC5-77" value="&lt;font style=&quot;font-size: 14px;&quot;&gt;status&lt;/font&gt;" style="text;html=1;strokeColor=none;fillColor=none;align=center;verticalAlign=middle;whiteSpace=wrap;rounded=0;" vertex="1" parent="1">
          <mxGeometry x="-80.5" y="445" width="60" height="30" as="geometry" />
        </mxCell>
        <mxCell id="IMHqvBNs-uF33SWiAqC5-78" value="" style="ellipse;whiteSpace=wrap;html=1;" vertex="1" parent="1">
          <mxGeometry x="-94.5" y="505" width="101" height="40" as="geometry" />
        </mxCell>
        <mxCell id="IMHqvBNs-uF33SWiAqC5-79" value="&lt;font style=&quot;font-size: 14px;&quot;&gt;totalAmt&lt;/font&gt;" style="text;html=1;strokeColor=none;fillColor=none;align=center;verticalAlign=middle;whiteSpace=wrap;rounded=0;" vertex="1" parent="1">
          <mxGeometry x="-74" y="510" width="60" height="30" as="geometry" />
        </mxCell>
        <mxCell id="IMHqvBNs-uF33SWiAqC5-80" value="" style="endArrow=none;html=1;rounded=0;entryX=0.712;entryY=0.992;entryDx=0;entryDy=0;entryPerimeter=0;" edge="1" parent="1" target="IMHqvBNs-uF33SWiAqC5-102">
          <mxGeometry width="50" height="50" relative="1" as="geometry">
            <mxPoint x="180" y="450" as="sourcePoint" />
            <mxPoint x="89.99299999999994" y="390" as="targetPoint" />
          </mxGeometry>
        </mxCell>
        <mxCell id="IMHqvBNs-uF33SWiAqC5-81" value="" style="ellipse;whiteSpace=wrap;html=1;" vertex="1" parent="1">
          <mxGeometry x="20" y="550" width="101" height="40" as="geometry" />
        </mxCell>
        <mxCell id="IMHqvBNs-uF33SWiAqC5-82" value="&lt;font style=&quot;font-size: 14px;&quot;&gt;startDate&lt;/font&gt;" style="text;html=1;strokeColor=none;fillColor=none;align=center;verticalAlign=middle;whiteSpace=wrap;rounded=0;" vertex="1" parent="1">
          <mxGeometry x="40.5" y="555" width="60" height="30" as="geometry" />
        </mxCell>
        <mxCell id="IMHqvBNs-uF33SWiAqC5-83" value="" style="ellipse;whiteSpace=wrap;html=1;" vertex="1" parent="1">
          <mxGeometry x="140" y="555" width="101" height="40" as="geometry" />
        </mxCell>
        <mxCell id="IMHqvBNs-uF33SWiAqC5-84" value="&lt;font style=&quot;font-size: 14px;&quot;&gt;endDate&lt;/font&gt;" style="text;html=1;strokeColor=none;fillColor=none;align=center;verticalAlign=middle;whiteSpace=wrap;rounded=0;" vertex="1" parent="1">
          <mxGeometry x="160.5" y="560" width="60" height="30" as="geometry" />
        </mxCell>
        <mxCell id="IMHqvBNs-uF33SWiAqC5-85" value="" style="endArrow=none;html=1;rounded=0;exitX=1;exitY=0.5;exitDx=0;exitDy=0;" edge="1" parent="1">
          <mxGeometry width="50" height="50" relative="1" as="geometry">
            <mxPoint x="1" y="401" as="sourcePoint" />
            <mxPoint x="130" y="450" as="targetPoint" />
          </mxGeometry>
        </mxCell>
        <mxCell id="IMHqvBNs-uF33SWiAqC5-86" value="" style="endArrow=none;html=1;rounded=0;" edge="1" parent="1">
          <mxGeometry width="50" height="50" relative="1" as="geometry">
            <mxPoint y="460" as="sourcePoint" />
            <mxPoint x="129" y="470" as="targetPoint" />
          </mxGeometry>
        </mxCell>
        <mxCell id="IMHqvBNs-uF33SWiAqC5-87" value="" style="endArrow=none;html=1;rounded=0;exitX=1;exitY=0.5;exitDx=0;exitDy=0;" edge="1" parent="1" source="IMHqvBNs-uF33SWiAqC5-78">
          <mxGeometry width="50" height="50" relative="1" as="geometry">
            <mxPoint x="79" y="540" as="sourcePoint" />
            <mxPoint x="129" y="490" as="targetPoint" />
          </mxGeometry>
        </mxCell>
        <mxCell id="IMHqvBNs-uF33SWiAqC5-88" value="" style="endArrow=none;html=1;rounded=0;exitX=1;exitY=0;exitDx=0;exitDy=0;" edge="1" parent="1" source="IMHqvBNs-uF33SWiAqC5-82">
          <mxGeometry width="50" height="50" relative="1" as="geometry">
            <mxPoint x="120" y="540" as="sourcePoint" />
            <mxPoint x="170" y="490" as="targetPoint" />
          </mxGeometry>
        </mxCell>
        <mxCell id="IMHqvBNs-uF33SWiAqC5-89" value="" style="endArrow=none;html=1;rounded=0;exitX=0.75;exitY=0;exitDx=0;exitDy=0;" edge="1" parent="1" source="IMHqvBNs-uF33SWiAqC5-84">
          <mxGeometry width="50" height="50" relative="1" as="geometry">
            <mxPoint x="154.5" y="540" as="sourcePoint" />
            <mxPoint x="204.5" y="490" as="targetPoint" />
          </mxGeometry>
        </mxCell>
        <mxCell id="IMHqvBNs-uF33SWiAqC5-90" value="" style="ellipse;whiteSpace=wrap;html=1;" vertex="1" parent="1">
          <mxGeometry x="460" y="124" width="101" height="40" as="geometry" />
        </mxCell>
        <mxCell id="IMHqvBNs-uF33SWiAqC5-91" value="&lt;font style=&quot;font-size: 14px;&quot;&gt;&lt;u&gt;userId&lt;/u&gt;&lt;/font&gt;" style="text;html=1;strokeColor=none;fillColor=none;align=center;verticalAlign=middle;whiteSpace=wrap;rounded=0;" vertex="1" parent="1">
          <mxGeometry x="480.5" y="134" width="60" height="30" as="geometry" />
        </mxCell>
        <mxCell id="IMHqvBNs-uF33SWiAqC5-92" value="" style="endArrow=none;html=1;rounded=0;" edge="1" parent="1">
          <mxGeometry width="50" height="50" relative="1" as="geometry">
            <mxPoint x="440" y="215" as="sourcePoint" />
            <mxPoint x="490" y="165" as="targetPoint" />
          </mxGeometry>
        </mxCell>
        <mxCell id="IMHqvBNs-uF33SWiAqC5-93" value="" style="ellipse;whiteSpace=wrap;html=1;" vertex="1" parent="1">
          <mxGeometry x="967" y="210" width="101" height="40" as="geometry" />
        </mxCell>
        <mxCell id="IMHqvBNs-uF33SWiAqC5-94" value="&lt;font style=&quot;font-size: 14px;&quot;&gt;&lt;u&gt;bikeId&lt;/u&gt;&lt;/font&gt;" style="text;html=1;strokeColor=none;fillColor=none;align=center;verticalAlign=middle;whiteSpace=wrap;rounded=0;" vertex="1" parent="1">
          <mxGeometry x="987.5" y="217" width="60" height="30" as="geometry" />
        </mxCell>
        <mxCell id="IMHqvBNs-uF33SWiAqC5-95" value="" style="endArrow=none;html=1;rounded=0;entryX=0;entryY=0.5;entryDx=0;entryDy=0;" edge="1" parent="1" target="IMHqvBNs-uF33SWiAqC5-93">
          <mxGeometry width="50" height="50" relative="1" as="geometry">
            <mxPoint x="840" y="250" as="sourcePoint" />
            <mxPoint x="890" y="200" as="targetPoint" />
          </mxGeometry>
        </mxCell>
        <mxCell id="IMHqvBNs-uF33SWiAqC5-98" value="&lt;span style=&quot;border-bottom: 1px dotted&quot;&gt;&lt;font style=&quot;font-size: 14px;&quot;&gt;renterId&lt;/font&gt;&lt;/span&gt;" style="ellipse;whiteSpace=wrap;html=1;align=center;" vertex="1" parent="1">
          <mxGeometry x="-93.5" y="371" width="100" height="40" as="geometry" />
        </mxCell>
        <mxCell id="IMHqvBNs-uF33SWiAqC5-99" value="" style="ellipse;whiteSpace=wrap;html=1;" vertex="1" parent="1">
          <mxGeometry x="143" y="352" width="101" height="40" as="geometry" />
        </mxCell>
        <mxCell id="IMHqvBNs-uF33SWiAqC5-100" value="&lt;font style=&quot;font-size: 14px;&quot;&gt;&lt;u&gt;orderId&lt;/u&gt;&lt;/font&gt;" style="text;html=1;strokeColor=none;fillColor=none;align=center;verticalAlign=middle;whiteSpace=wrap;rounded=0;" vertex="1" parent="1">
          <mxGeometry x="163.5" y="357" width="60" height="30" as="geometry" />
        </mxCell>
        <mxCell id="IMHqvBNs-uF33SWiAqC5-102" value="&lt;span style=&quot;border-bottom: 1px dotted&quot;&gt;&lt;font style=&quot;font-size: 14px;&quot;&gt;categoryId&lt;/font&gt;&lt;/span&gt;" style="ellipse;whiteSpace=wrap;html=1;align=center;" vertex="1" parent="1">
          <mxGeometry x="6.5" y="350" width="100" height="40" as="geometry" />
        </mxCell>
        <mxCell id="IMHqvBNs-uF33SWiAqC5-103" value="" style="endArrow=none;html=1;rounded=0;entryX=0.584;entryY=1.058;entryDx=0;entryDy=0;entryPerimeter=0;" edge="1" parent="1" target="IMHqvBNs-uF33SWiAqC5-99">
          <mxGeometry width="50" height="50" relative="1" as="geometry">
            <mxPoint x="195.5" y="450" as="sourcePoint" />
            <mxPoint x="190" y="400" as="targetPoint" />
          </mxGeometry>
        </mxCell>
        <mxCell id="IMHqvBNs-uF33SWiAqC5-104" value="&lt;span style=&quot;border-bottom: 1px dotted&quot;&gt;&lt;font style=&quot;font-size: 14px;&quot;&gt;categoryId&lt;/font&gt;&lt;/span&gt;" style="ellipse;whiteSpace=wrap;html=1;align=center;" vertex="1" parent="1">
          <mxGeometry x="910" y="320" width="100" height="40" as="geometry" />
        </mxCell>
        <mxCell id="IMHqvBNs-uF33SWiAqC5-105" value="" style="ellipse;whiteSpace=wrap;html=1;" vertex="1" parent="1">
          <mxGeometry x="540.5" y="710" width="101" height="40" as="geometry" />
        </mxCell>
        <mxCell id="IMHqvBNs-uF33SWiAqC5-106" value="&lt;font style=&quot;font-size: 14px;&quot;&gt;answer&lt;/font&gt;" style="text;html=1;strokeColor=none;fillColor=none;align=center;verticalAlign=middle;whiteSpace=wrap;rounded=0;" vertex="1" parent="1">
          <mxGeometry x="561" y="715" width="60" height="30" as="geometry" />
        </mxCell>
        <mxCell id="IMHqvBNs-uF33SWiAqC5-107" value="" style="ellipse;whiteSpace=wrap;html=1;" vertex="1" parent="1">
          <mxGeometry x="420" y="693" width="101" height="40" as="geometry" />
        </mxCell>
        <mxCell id="IMHqvBNs-uF33SWiAqC5-108" value="&lt;span style=&quot;font-size: 14px;&quot;&gt;password&lt;/span&gt;" style="text;html=1;strokeColor=none;fillColor=none;align=center;verticalAlign=middle;whiteSpace=wrap;rounded=0;" vertex="1" parent="1">
          <mxGeometry x="440.5" y="698" width="60" height="30" as="geometry" />
        </mxCell>
        <mxCell id="IMHqvBNs-uF33SWiAqC5-109" value="" style="ellipse;whiteSpace=wrap;html=1;" vertex="1" parent="1">
          <mxGeometry x="375" y="634" width="101" height="40" as="geometry" />
        </mxCell>
        <mxCell id="IMHqvBNs-uF33SWiAqC5-110" value="&lt;font style=&quot;font-size: 14px;&quot;&gt;email&lt;/font&gt;" style="text;html=1;strokeColor=none;fillColor=none;align=center;verticalAlign=middle;whiteSpace=wrap;rounded=0;" vertex="1" parent="1">
          <mxGeometry x="395.5" y="639" width="60" height="30" as="geometry" />
        </mxCell>
        <mxCell id="IMHqvBNs-uF33SWiAqC5-111" value="" style="ellipse;whiteSpace=wrap;html=1;" vertex="1" parent="1">
          <mxGeometry x="377" y="560" width="101" height="40" as="geometry" />
        </mxCell>
        <mxCell id="IMHqvBNs-uF33SWiAqC5-112" value="&lt;font style=&quot;font-size: 14px;&quot;&gt;name&lt;/font&gt;" style="text;html=1;strokeColor=none;fillColor=none;align=center;verticalAlign=middle;whiteSpace=wrap;rounded=0;" vertex="1" parent="1">
          <mxGeometry x="397.5" y="565" width="60" height="30" as="geometry" />
        </mxCell>
        <mxCell id="IMHqvBNs-uF33SWiAqC5-113" value="" style="ellipse;whiteSpace=wrap;html=1;" vertex="1" parent="1">
          <mxGeometry x="654" y="710" width="101" height="40" as="geometry" />
        </mxCell>
        <mxCell id="IMHqvBNs-uF33SWiAqC5-114" value="&lt;font style=&quot;font-size: 14px;&quot;&gt;role&lt;/font&gt;" style="text;html=1;strokeColor=none;fillColor=none;align=center;verticalAlign=middle;whiteSpace=wrap;rounded=0;" vertex="1" parent="1">
          <mxGeometry x="674.5" y="715" width="60" height="30" as="geometry" />
        </mxCell>
        <mxCell id="IMHqvBNs-uF33SWiAqC5-115" value="" style="ellipse;whiteSpace=wrap;html=1;" vertex="1" parent="1">
          <mxGeometry x="490" y="520" width="101" height="40" as="geometry" />
        </mxCell>
        <mxCell id="IMHqvBNs-uF33SWiAqC5-116" value="&lt;font style=&quot;font-size: 14px;&quot;&gt;&lt;u&gt;adminId&lt;/u&gt;&lt;/font&gt;" style="text;html=1;strokeColor=none;fillColor=none;align=center;verticalAlign=middle;whiteSpace=wrap;rounded=0;" vertex="1" parent="1">
          <mxGeometry x="510.5" y="525" width="60" height="30" as="geometry" />
        </mxCell>
        <mxCell id="IMHqvBNs-uF33SWiAqC5-117" value="" style="endArrow=none;html=1;rounded=0;entryX=0.749;entryY=1.008;entryDx=0;entryDy=0;entryPerimeter=0;" edge="1" parent="1" target="IMHqvBNs-uF33SWiAqC5-115">
          <mxGeometry width="50" height="50" relative="1" as="geometry">
            <mxPoint x="591.5" y="600" as="sourcePoint" />
            <mxPoint x="641.5" y="550" as="targetPoint" />
          </mxGeometry>
        </mxCell>
        <mxCell id="IMHqvBNs-uF33SWiAqC5-118" value="" style="endArrow=none;html=1;rounded=0;exitX=0.957;exitY=0.708;exitDx=0;exitDy=0;exitPerimeter=0;" edge="1" parent="1" source="IMHqvBNs-uF33SWiAqC5-111">
          <mxGeometry width="50" height="50" relative="1" as="geometry">
            <mxPoint x="500" y="650" as="sourcePoint" />
            <mxPoint x="550" y="600" as="targetPoint" />
          </mxGeometry>
        </mxCell>
        <mxCell id="IMHqvBNs-uF33SWiAqC5-119" value="" style="endArrow=none;html=1;rounded=0;" edge="1" parent="1" source="IMHqvBNs-uF33SWiAqC5-109">
          <mxGeometry width="50" height="50" relative="1" as="geometry">
            <mxPoint x="500" y="660" as="sourcePoint" />
            <mxPoint x="550" y="610" as="targetPoint" />
          </mxGeometry>
        </mxCell>
        <mxCell id="IMHqvBNs-uF33SWiAqC5-120" value="" style="endArrow=none;html=1;rounded=0;exitX=0.886;exitY=-0.056;exitDx=0;exitDy=0;exitPerimeter=0;" edge="1" parent="1" source="IMHqvBNs-uF33SWiAqC5-108">
          <mxGeometry width="50" height="50" relative="1" as="geometry">
            <mxPoint x="500.5" y="689" as="sourcePoint" />
            <mxPoint x="550.5" y="639" as="targetPoint" />
          </mxGeometry>
        </mxCell>
        <mxCell id="IMHqvBNs-uF33SWiAqC5-121" value="" style="endArrow=none;html=1;rounded=0;exitX=0.5;exitY=0;exitDx=0;exitDy=0;" edge="1" parent="1" source="IMHqvBNs-uF33SWiAqC5-105">
          <mxGeometry width="50" height="50" relative="1" as="geometry">
            <mxPoint x="550" y="689" as="sourcePoint" />
            <mxPoint x="600" y="639" as="targetPoint" />
          </mxGeometry>
        </mxCell>
        <mxCell id="IMHqvBNs-uF33SWiAqC5-122" value="" style="endArrow=none;html=1;rounded=0;exitX=0.5;exitY=0;exitDx=0;exitDy=0;" edge="1" parent="1" source="IMHqvBNs-uF33SWiAqC5-113">
          <mxGeometry width="50" height="50" relative="1" as="geometry">
            <mxPoint x="600" y="689" as="sourcePoint" />
            <mxPoint x="650" y="639" as="targetPoint" />
          </mxGeometry>
        </mxCell>
        <mxCell id="IMHqvBNs-uF33SWiAqC5-123" value="Category" style="rounded=1;arcSize=10;whiteSpace=wrap;html=1;align=center;" vertex="1" parent="1">
          <mxGeometry x="920" y="450" width="100" height="40" as="geometry" />
        </mxCell>
        <mxCell id="IMHqvBNs-uF33SWiAqC5-125" value="" style="ellipse;whiteSpace=wrap;html=1;" vertex="1" parent="1">
          <mxGeometry x="1060" y="397" width="101" height="40" as="geometry" />
        </mxCell>
        <mxCell id="IMHqvBNs-uF33SWiAqC5-126" value="&lt;font style=&quot;font-size: 14px;&quot;&gt;&lt;u&gt;categoryId&lt;/u&gt;&lt;/font&gt;" style="text;html=1;strokeColor=none;fillColor=none;align=center;verticalAlign=middle;whiteSpace=wrap;rounded=0;" vertex="1" parent="1">
          <mxGeometry x="1080.5" y="407" width="60" height="30" as="geometry" />
        </mxCell>
        <mxCell id="IMHqvBNs-uF33SWiAqC5-127" value="" style="ellipse;whiteSpace=wrap;html=1;" vertex="1" parent="1">
          <mxGeometry x="1070" y="485" width="101" height="40" as="geometry" />
        </mxCell>
        <mxCell id="IMHqvBNs-uF33SWiAqC5-128" value="&lt;font style=&quot;font-size: 14px;&quot;&gt;name&lt;/font&gt;" style="text;html=1;strokeColor=none;fillColor=none;align=center;verticalAlign=middle;whiteSpace=wrap;rounded=0;" vertex="1" parent="1">
          <mxGeometry x="1090.5" y="492" width="60" height="30" as="geometry" />
        </mxCell>
        <mxCell id="IMHqvBNs-uF33SWiAqC5-129" value="" style="endArrow=none;html=1;rounded=0;entryX=0;entryY=0.5;entryDx=0;entryDy=0;" edge="1" parent="1" target="IMHqvBNs-uF33SWiAqC5-125">
          <mxGeometry width="50" height="50" relative="1" as="geometry">
            <mxPoint x="980" y="450" as="sourcePoint" />
            <mxPoint x="1030" y="400" as="targetPoint" />
          </mxGeometry>
        </mxCell>
        <mxCell id="IMHqvBNs-uF33SWiAqC5-130" value="" style="endArrow=none;html=1;rounded=0;entryX=0;entryY=0;entryDx=0;entryDy=0;" edge="1" parent="1" target="IMHqvBNs-uF33SWiAqC5-127">
          <mxGeometry width="50" height="50" relative="1" as="geometry">
            <mxPoint x="1020" y="475" as="sourcePoint" />
            <mxPoint x="1070" y="425" as="targetPoint" />
          </mxGeometry>
        </mxCell>
      </root>
    </mxGraphModel>
  </diagram>
</mxfile>
